<svg xmlns="http://www.w3.org/2000/svg" viewBox="-50 -58 100 112" width="480" height="480" role="img" aria-label="Barbell Overhead Press — start position"><title>Barbell Overhead Press — start position</title><rect x="-50" y="-58" width="100" height="112" fill="#F4F6F8"/><ellipse cx="8.99" cy="49" rx="17" ry="2.6" fill="#D3DAE1" opacity="0.75"/><line x1="-46" y1="48" x2="46" y2="48" stroke="#D3DAE1" stroke-width="2" stroke-linecap="round"/><g opacity="0.92"><path d="M -5.25 -5.91 L -3.26 19.06 A 3.7 3.7 0 0 1 4.14 18.93 L 5.25 -6.09 A 5.25 5.25 0 0 1 -5.25 -5.91 Z" fill="#8A99A8"/><path d="M -3.26 19 L -1.86 42 A 2.3 2.3 0 0 1 2.74 42 L 4.14 19 A 3.7 3.7 0 0 1 -3.26 19 Z" fill="#8A99A8"/><path d="M 0.36 44.29 L 9.37 44.01 A 1.7 1.7 0 0 1 9.49 40.61 L 0.52 39.7 A 2.3 2.3 0 0 1 0.36 44.29 Z" fill="#8A99A8"/><path d="M -3.39 -35.04 L -13.86 -21.63 A 2.6 2.6 0 0 1 -9.88 -18.29 L 1.51 -30.93 A 3.2 3.2 0 0 1 -3.39 -35.04 Z" fill="#8A99A8"/><path d="M -9.29 -19.6 L -7.9 -34.55 A 1.9 1.9 0 0 1 -11.66 -35.08 L -14.44 -20.32 A 2.6 2.6 0 0 1 -9.29 -19.6 Z" fill="#8A99A8"/><path d="M -7.9 -34.55 L -7.64 -38.55 A 1.6 1.6 0 0 1 -10.81 -39 L -11.66 -35.08 A 1.9 1.9 0 0 1 -7.9 -34.55 Z" fill="#8A99A8"/></g><circle cx="0" cy="-6" r="6.6" fill="#26313B"/><path d="M 6.5 -6.23 L 7.05 -33.26 A 8 8 0 0 1 -8.94 -32.7 L -6.5 -5.77 A 6.5 6.5 0 0 1 6.5 -6.23 Z" fill="#26313B"/><path d="M 1.81 -33.08 L 1.67 -37.08 A 2.75 2.75 0 0 1 -3.83 -36.89 L -3.69 -32.89 A 2.75 2.75 0 0 1 1.81 -33.08 Z" fill="#26313B"/><circle cx="-1.29" cy="-42.98" r="6" fill="#26313B"/><path d="M -5.25 -6.09 L -4.14 18.93 A 3.7 3.7 0 0 1 3.26 19.06 L 5.25 -5.91 A 5.25 5.25 0 0 1 -5.25 -6.09 Z" fill="#2E3A46"/><path d="M -4.14 19 L -2.74 42 A 2.3 2.3 0 0 1 1.86 42 L 3.26 19 A 3.7 3.7 0 0 1 -4.14 19 Z" fill="#2E3A46"/><path d="M -0.52 44.29 L 8.5 44.01 A 1.7 1.7 0 0 1 8.62 40.61 L -0.36 39.7 A 2.3 2.3 0 0 1 -0.52 44.29 Z" fill="#2E3A46"/><path d="M -3.32 -35.12 L -14.25 -22.09 A 2.6 2.6 0 0 1 -10.39 -18.61 L 1.44 -30.84 A 3.2 3.2 0 0 1 -3.32 -35.12 Z" fill="#2E3A46"/><path d="M -9.76 -19.9 L -7.84 -34.79 A 1.9 1.9 0 0 1 -11.58 -35.45 L -14.88 -20.8 A 2.6 2.6 0 0 1 -9.76 -19.9 Z" fill="#2E3A46"/><path d="M -7.84 -34.79 L -7.44 -38.78 A 1.6 1.6 0 0 1 -10.59 -39.34 L -11.58 -35.45 A 1.9 1.9 0 0 1 -7.84 -34.79 Z" fill="#2E3A46"/><g><line x1="-38.02" y1="-39.06" x2="19.98" y2="-39.06" stroke="#141A20" stroke-width="4" stroke-linecap="round"/><g><circle cx="-38.02" cy="-39.06" r="9" fill="#141A20"/><circle cx="-38.02" cy="-39.06" r="3.06" fill="#5C6874"/></g><g><circle cx="19.98" cy="-39.06" r="9" fill="#141A20"/><circle cx="19.98" cy="-39.06" r="3.06" fill="#5C6874"/></g></g><text x="0" y="51" text-anchor="middle" font-family="ui-sans-serif,system-ui,-apple-system,Segoe UI,Roboto,sans-serif" font-size="7.5" font-weight="700" letter-spacing="0.7" fill="#5C6874">START</text></svg>
